<svg width="292" height="270" viewBox="0 0 292 270" fill="none" xmlns="http://www.w3.org/2000/svg">
<path d="M79.3452 250.733C104.145 269.533 134.345 266.567 146.345 262.733C164.345 270.733 185.179 263.4 193.345 258.733C212.545 248.733 218.012 213.233 218.345 196.733L225.345 193.233C228.545 192.433 257.679 166.233 271.845 153.233C289.045 136.033 288.679 122.4 286.345 117.733C279.945 107.733 268.345 113.567 263.345 117.733L221.345 151.233C197.345 171.633 207.345 149.733 215.345 136.233C234.545 101.433 243.345 69.4001 245.345 57.7335C246.145 35.3335 238.345 28.7335 234.345 28.2335C219.945 24.2335 208.345 43.9001 204.345 54.2335L175.345 133.233C168.545 151.633 167.512 139.9 167.845 131.733V72.2335C173.045 23.4335 159.345 6.90013 151.845 4.73346C137.845 0.733458 132.012 14.0668 130.845 21.2335L124.845 125.733C124.445 158.533 118.345 139.4 115.345 125.733L87.3452 45.7335C79.3452 27.7335 67.0119 26.5668 61.8452 28.2335C49.8452 32.2335 50.8452 47.2335 52.8452 54.2335C61.2452 73.4335 71.3452 140.9 75.3452 172.233L50.3452 151.733C30.3452 134.133 14.3452 137.733 8.84524 141.733C-1.55476 148.533 7.17857 161.9 12.8452 167.733C29.6452 176.933 52.1786 201.9 61.3452 213.233C64.9452 231.633 74.8452 245.9 79.3452 250.733Z" fill="white"/>
<path d="M75.3452 172.233L50.3452 151.733C30.3452 134.133 14.3452 137.733 8.84524 141.733C-1.55476 148.533 7.17857 161.9 12.8452 167.733C29.6452 176.933 52.1786 201.9 61.3452 213.233C64.9452 231.633 74.8452 245.9 79.3452 250.733C104.145 269.533 134.345 266.567 146.345 262.733C164.345 270.733 185.179 263.4 193.345 258.733C212.545 248.733 218.012 213.233 218.345 196.733L225.345 193.233C228.545 192.433 257.679 166.233 271.845 153.233C289.045 136.033 288.679 122.4 286.345 117.733C279.945 107.733 268.345 113.567 263.345 117.733L221.345 151.233C197.345 171.633 207.345 149.733 215.345 136.233C234.545 101.433 243.345 69.4001 245.345 57.7335C246.145 35.3335 238.345 28.7335 234.345 28.2335C219.945 24.2335 208.345 43.9001 204.345 54.2335L175.345 133.233C168.545 151.633 167.512 139.9 167.845 131.733C167.845 126.133 167.845 89.7335 167.845 72.2335C173.045 23.4335 159.345 6.90013 151.845 4.73346C137.845 0.733458 132.012 14.0668 130.845 21.2335L124.845 125.733C124.445 158.533 118.345 139.4 115.345 125.733L87.3452 45.7335C79.3452 27.7335 67.0119 26.5668 61.8452 28.2335C49.8452 32.2335 50.8452 47.2335 52.8452 54.2335C61.2452 73.4335 71.3452 140.9 75.3452 172.233ZM75.3452 172.233C76.1785 173.9 81.1452 176.733 94.3452 174.733C105.845 172.733 129.945 176.933 134.345 209.733" stroke="#655146" stroke-width="7"/>
</svg>
