<svg width="312" height="312" viewBox="0 0 312 312" fill="none" xmlns="http://www.w3.org/2000/svg">
<circle cx="156" cy="156" r="156" fill="#F4B0BF"/>
<path d="M89.3452 271.733C114.145 290.533 144.345 287.567 156.345 283.733C174.345 291.733 195.179 284.4 203.345 279.733C222.545 269.733 228.012 234.233 228.345 217.733L235.345 214.233C238.545 213.433 267.679 187.233 281.845 174.233C299.045 157.033 298.679 143.4 296.345 138.733C289.945 128.733 278.345 134.567 273.345 138.733L231.345 172.233C207.345 192.633 217.345 170.733 225.345 157.233C244.545 122.433 253.345 90.4001 255.345 78.7335C256.145 56.3335 248.345 49.7335 244.345 49.2335C229.945 45.2335 218.345 64.9001 214.345 75.2335L185.345 154.233C178.545 172.633 177.512 160.9 177.845 152.733V93.2335C183.045 44.4335 169.345 27.9001 161.845 25.7335C147.845 21.7335 142.012 35.0668 140.845 42.2335L134.845 146.733C134.445 179.533 128.345 160.4 125.345 146.733L97.3452 66.7335C89.3452 48.7335 77.0119 47.5668 71.8452 49.2335C59.8452 53.2335 60.8452 68.2335 62.8452 75.2335C71.2452 94.4335 81.3452 161.9 85.3452 193.233L60.3452 172.733C40.3452 155.133 24.3452 158.733 18.8452 162.733C8.44524 169.533 17.1786 182.9 22.8452 188.733C39.6452 197.933 62.1786 222.9 71.3452 234.233C74.9452 252.633 84.8452 266.9 89.3452 271.733Z" fill="white"/>
<path d="M85.3452 193.233L60.3452 172.733C40.3452 155.133 24.3452 158.733 18.8452 162.733C8.44524 169.533 17.1786 182.9 22.8452 188.733C39.6452 197.933 62.1786 222.9 71.3452 234.233C74.9452 252.633 84.8452 266.9 89.3452 271.733C114.145 290.533 144.345 287.567 156.345 283.733C174.345 291.733 195.179 284.4 203.345 279.733C222.545 269.733 228.012 234.233 228.345 217.733L235.345 214.233C238.545 213.433 267.679 187.233 281.845 174.233C299.045 157.033 298.679 143.4 296.345 138.733C289.945 128.733 278.345 134.567 273.345 138.733L231.345 172.233C207.345 192.633 217.345 170.733 225.345 157.233C244.545 122.433 253.345 90.4001 255.345 78.7335C256.145 56.3335 248.345 49.7335 244.345 49.2335C229.945 45.2335 218.345 64.9001 214.345 75.2335L185.345 154.233C178.545 172.633 177.512 160.9 177.845 152.733C177.845 147.133 177.845 110.733 177.845 93.2335C183.045 44.4335 169.345 27.9001 161.845 25.7335C147.845 21.7335 142.012 35.0668 140.845 42.2335L134.845 146.733C134.445 179.533 128.345 160.4 125.345 146.733L97.3452 66.7335C89.3452 48.7335 77.0119 47.5668 71.8452 49.2335C59.8452 53.2335 60.8452 68.2335 62.8452 75.2335C71.2452 94.4335 81.3452 161.9 85.3452 193.233ZM85.3452 193.233C86.1785 194.9 91.1452 197.733 104.345 195.733C115.845 193.733 139.945 197.933 144.345 230.733" stroke="#655146" stroke-width="7"/>
</svg>
