<svg width="312" height="312" viewBox="0 0 312 312" fill="none" xmlns="http://www.w3.org/2000/svg">
<circle cx="156" cy="156" r="156" fill="#F8CF66"/>
<rect x="98.1528" y="81.9686" width="45.0523" height="81.8327" rx="22.5262" transform="rotate(-18.094 98.1528 81.9686)" fill="white" stroke="#655146" stroke-width="5"/>
<rect x="55.1528" y="103.969" width="45.0523" height="80.5596" rx="22.5262" transform="rotate(-18.094 55.1528 103.969)" fill="white" stroke="#655146" stroke-width="5"/>
<path d="M153.5 129.824C174.3 109.024 185.167 107.824 188 109.824C193.2 90.6236 207.167 91.4902 213.5 94.3236C229.1 96.3236 240.667 113.824 244.5 122.324L250.5 139.824C266.9 193.824 257.333 217.657 250.5 222.824C242.5 237.224 211.5 246.157 197 248.824C176.2 262.424 142.333 260.157 128 257.324C104 250.524 89 220.824 84.5 206.824C77.7 192.424 76.3333 179.157 76.5 174.324C100.9 149.124 108.333 142.824 109 142.824C129.4 146.024 147.167 135.49 153.5 129.824Z" fill="white"/>
<path d="M172.5 222.824C178.5 206.49 181.6 174.624 146 177.824C153.167 177.657 169.7 176.124 178.5 171.324C189 166.157 208.8 150.624 204 129.824C202.667 124.157 197.6 112.224 188 109.824M188 109.824C185.167 107.824 174.3 109.024 153.5 129.824C147.167 135.49 129.4 146.024 109 142.824C108.333 142.824 100.9 149.124 76.5 174.324C76.3333 179.157 77.7 192.424 84.5 206.824C89 220.824 104 250.524 128 257.324C142.333 260.157 176.2 262.424 197 248.824C211.5 246.157 242.5 237.224 250.5 222.824C257.333 217.657 266.9 193.824 250.5 139.824L244.5 122.324C240.667 113.824 229.1 96.3236 213.5 94.3236C207.167 91.4902 193.2 90.6236 188 109.824Z" stroke="#655146" stroke-width="7"/>
<rect x="185.61" y="68.4593" width="45.0523" height="76.6596" rx="22.5262" transform="rotate(-17.2121 185.61 68.4593)" fill="white" stroke="#655146" stroke-width="5"/>
<path d="M158 67.1901C144.4 82.3901 154.333 111.523 161 124.19C164.833 121.357 174 115.39 180 114.19C186.833 113.523 200 119.89 198 150.69C212 134.29 204.167 96.1901 195.5 79.1901C180.7 55.1901 164.333 61.1901 158 67.1901Z" fill="white"/>
<path d="M198 150.69C212 134.29 204.167 96.1901 195.5 79.1901C180.7 55.1901 164.333 61.1901 158 67.1901C144.4 82.3901 154.333 111.523 161 124.19C164.833 121.357 174 115.39 180 114.19C186.833 113.523 200 119.89 198 150.69ZM198 150.69C196.833 155.19 192.4 164.89 184 167.69" stroke="#655146" stroke-width="7"/>
</svg>
