<svg width="212" height="211" viewBox="0 0 212 211" fill="none" xmlns="http://www.w3.org/2000/svg">
<rect x="46.1528" y="29.9686" width="45.0523" height="81.8327" rx="22.5262" transform="rotate(-18.094 46.1528 29.9686)" fill="white" stroke="#655146" stroke-width="5"/>
<rect x="3.15281" y="51.9686" width="45.0523" height="80.5596" rx="22.5262" transform="rotate(-18.094 3.15281 51.9686)" fill="white" stroke="#655146" stroke-width="5"/>
<path d="M101.5 77.8236C122.3 57.0236 133.167 55.8236 136 57.8236C141.2 38.6236 155.167 39.4902 161.5 42.3236C177.1 44.3236 188.667 61.8236 192.5 70.3236L198.5 87.8236C214.9 141.824 205.333 165.657 198.5 170.824C190.5 185.224 159.5 194.157 145 196.824C124.2 210.424 90.3333 208.157 76 205.324C52 198.524 37 168.824 32.5 154.824C25.7 140.424 24.3333 127.157 24.5 122.324C48.9 97.1236 56.3333 90.8236 57 90.8236C77.4 94.0236 95.1666 83.4902 101.5 77.8236Z" fill="white"/>
<path d="M120.5 170.824C126.5 154.49 129.6 122.624 94 125.824C101.167 125.657 117.7 124.124 126.5 119.324C137 114.157 156.8 98.6236 152 77.8236C150.667 72.1569 145.6 60.2236 136 57.8236M136 57.8236C133.167 55.8236 122.3 57.0236 101.5 77.8236C95.1666 83.4902 77.4 94.0236 57 90.8236C56.3333 90.8236 48.9 97.1236 24.5 122.324C24.3333 127.157 25.7 140.424 32.5 154.824C37 168.824 52 198.524 76 205.324C90.3333 208.157 124.2 210.424 145 196.824C159.5 194.157 190.5 185.224 198.5 170.824C205.333 165.657 214.9 141.824 198.5 87.8236L192.5 70.3236C188.667 61.8236 177.1 44.3236 161.5 42.3236C155.167 39.4902 141.2 38.6236 136 57.8236Z" stroke="#655146" stroke-width="7"/>
<rect x="133.61" y="16.4593" width="45.0523" height="76.6596" rx="22.5262" transform="rotate(-17.2121 133.61 16.4593)" fill="white" stroke="#655146" stroke-width="5"/>
<path d="M106 15.1901C92.4 30.3901 102.333 59.5234 109 72.1901C112.833 69.3568 122 63.3901 128 62.1901C134.833 61.5235 148 67.8901 146 98.6901C160 82.2901 152.167 44.1901 143.5 27.1901C128.7 3.19011 112.333 9.19011 106 15.1901Z" fill="white"/>
<path d="M146 98.6901C160 82.2901 152.167 44.1901 143.5 27.1901C128.7 3.19011 112.333 9.19011 106 15.1901C92.4 30.3901 102.333 59.5234 109 72.1901C112.833 69.3568 122 63.3901 128 62.1901C134.833 61.5235 148 67.8901 146 98.6901ZM146 98.6901C144.833 103.19 140.4 112.89 132 115.69" stroke="#655146" stroke-width="7"/>
</svg>
