<svg width="182" height="270" viewBox="0 0 182 270" fill="none" xmlns="http://www.w3.org/2000/svg">
<path d="M19.139 149.507C23.139 113.34 30.239 34.1065 28.639 22.5065C29.139 18.1732 31.939 8.90652 39.139 6.50652C43.3056 4.50652 53.739 4.40652 62.139 20.0065C66.139 30.6732 73.839 59.0065 72.639 87.0065V123.507C72.8056 130.173 74.639 139.507 80.639 123.507L115.639 22.5065C117.639 16.5065 124.139 4.40652 134.139 4.00652C138.139 3.83985 147.239 6.80652 151.639 20.0065C153.139 24.6732 152.239 45.5065 136.639 91.5065L129.139 115.507C121.746 123.529 107.553 140.548 106.654 147.816C106.81 147.796 106.965 147.776 107.12 147.756C112.625 133.904 128.695 108.395 153.139 108.007C159.981 108.75 170.619 115.812 164.585 137.507C182.541 138.707 178.769 162.34 174.639 174.007C173.614 178.961 169.816 183.484 165.139 187.286L166.139 190.507C165.339 217.707 145.472 246.507 135.639 257.507C117.639 272.307 89.1389 265.34 77.1389 260.007C60.7389 262.407 37.9723 251.673 28.639 246.007C-0.561028 234.407 2.13897 189.84 7.13897 169.007C9.93897 153.007 16.3056 149.34 19.139 149.507Z" fill="white"/>
<path d="M19.139 149.507C23.139 113.34 30.239 34.1065 28.639 22.5065C29.139 18.1732 31.939 8.90652 39.139 6.50652C43.3056 4.50652 53.739 4.40652 62.139 20.0065C66.139 30.6732 73.839 59.0065 72.639 87.0065V123.507C72.8056 130.173 74.639 139.507 80.639 123.507L115.639 22.5065C117.639 16.5065 124.139 4.40652 134.139 4.00652C138.139 3.83985 147.239 6.80652 151.639 20.0065C153.139 24.6732 152.239 45.5065 136.639 91.5065L129.139 115.507C121.306 124.007 105.839 142.607 106.639 149.007C111.639 135.507 127.939 108.407 153.139 108.007C159.981 108.75 170.619 115.812 164.585 137.507M19.139 149.507C22.739 149.907 31.639 145.673 35.639 143.507C47.239 135.907 57.139 140.34 60.639 143.507C73.439 152.307 103.972 148.84 117.639 146.007C134.439 143.607 134.306 165.673 132.139 177.007M19.139 149.507C16.3056 149.34 9.93897 153.007 7.13897 169.007C2.13897 189.84 -0.561028 234.407 28.639 246.007C37.9723 251.673 60.7389 262.407 77.1389 260.007C89.1389 265.34 117.639 272.307 135.639 257.507C145.472 246.507 165.339 217.707 166.139 190.507L165.139 187.286M132.139 177.007C143.739 168.607 156.639 152.84 161.639 146.007C162.887 142.951 163.857 140.122 164.585 137.507M132.139 177.007C129.472 180.84 122.139 188.707 114.139 189.507M114.139 189.507C116.139 195.173 125.339 204.807 146.139 198.007C151.009 196.192 158.865 192.387 165.139 187.286M114.139 189.507C106.306 191.34 88.839 194.107 81.639 190.507C77.8056 188.173 69.139 183.407 65.139 183.007C78.139 187.84 96.639 204.307 66.639 231.507M164.585 137.507C182.541 138.707 178.769 162.34 174.639 174.007C173.614 178.961 169.816 183.484 165.139 187.286" stroke="#655146" stroke-width="7"/>
</svg>
