<svg width="312" height="312" viewBox="0 0 312 312" fill="none" xmlns="http://www.w3.org/2000/svg">
<circle cx="156" cy="156" r="156" fill="#A9CC8A"/>
<path d="M84.139 170.507C88.139 134.34 95.239 55.1065 93.639 43.5065C94.139 39.1732 96.939 29.9065 104.139 27.5065C108.306 25.5065 118.739 25.4065 127.139 41.0065C131.139 51.6732 138.839 80.0065 137.639 108.007V144.507C137.806 151.173 139.639 160.507 145.639 144.507L180.639 43.5065C182.639 37.5065 189.139 25.4065 199.139 25.0065C203.139 24.8399 212.239 27.8065 216.639 41.0065C218.139 45.6732 217.239 66.5065 201.639 112.507L194.139 136.507C186.746 144.529 172.553 161.548 171.654 168.816C171.81 168.796 171.965 168.776 172.12 168.756C177.625 154.904 193.695 129.395 218.139 129.007C224.981 129.75 235.619 136.812 229.585 158.507C247.541 159.707 243.769 183.34 239.639 195.007C238.614 199.961 234.816 204.484 230.139 208.286L231.139 211.507C230.339 238.707 210.472 267.507 200.639 278.507C182.639 293.307 154.139 286.34 142.139 281.007C125.739 283.407 102.972 272.673 93.639 267.007C64.439 255.407 67.139 210.84 72.139 190.007C74.939 174.007 81.3056 170.34 84.139 170.507Z" fill="white"/>
<path d="M84.139 170.507C88.139 134.34 95.239 55.1065 93.639 43.5065C94.139 39.1732 96.939 29.9065 104.139 27.5065C108.306 25.5065 118.739 25.4065 127.139 41.0065C131.139 51.6732 138.839 80.0065 137.639 108.007V144.507C137.806 151.173 139.639 160.507 145.639 144.507L180.639 43.5065C182.639 37.5065 189.139 25.4065 199.139 25.0065C203.139 24.8399 212.239 27.8065 216.639 41.0065C218.139 45.6732 217.239 66.5065 201.639 112.507L194.139 136.507C186.306 145.007 170.839 163.607 171.639 170.007C176.639 156.507 192.939 129.407 218.139 129.007C224.981 129.75 235.619 136.812 229.585 158.507M84.139 170.507C87.739 170.907 96.639 166.673 100.639 164.507C112.239 156.907 122.139 161.34 125.639 164.507C138.439 173.307 168.972 169.84 182.639 167.007C199.439 164.607 199.306 186.673 197.139 198.007M84.139 170.507C81.3056 170.34 74.939 174.007 72.139 190.007C67.139 210.84 64.439 255.407 93.639 267.007C102.972 272.673 125.739 283.407 142.139 281.007C154.139 286.34 182.639 293.307 200.639 278.507C210.472 267.507 230.339 238.707 231.139 211.507L230.139 208.286M197.139 198.007C208.739 189.607 221.639 173.84 226.639 167.007C227.887 163.951 228.857 161.122 229.585 158.507M197.139 198.007C194.472 201.84 187.139 209.707 179.139 210.507M179.139 210.507C181.139 216.173 190.339 225.807 211.139 219.007C216.009 217.192 223.865 213.387 230.139 208.286M179.139 210.507C171.306 212.34 153.839 215.107 146.639 211.507C142.806 209.173 134.139 204.407 130.139 204.007C143.139 208.84 161.639 225.307 131.639 252.507M229.585 158.507C247.541 159.707 243.769 183.34 239.639 195.007C238.614 199.961 234.816 204.484 230.139 208.286" stroke="#655146" stroke-width="7"/>
</svg>
